<mxfile host="app.diagrams.net" agent="Mozilla/5.0 (Windows NT 10.0; Win64; x64) AppleWebKit/537.36 (KHTML, like Gecko) Chrome/126.0.0.0 Safari/537.36" version="24.8.8">
  <diagram name="Halaman-1" id="w_9NHYNZf3gtJq4rPByt">
    <mxGraphModel dx="880" dy="460" grid="1" gridSize="10" guides="1" tooltips="1" connect="1" arrows="1" fold="1" page="1" pageScale="1" pageWidth="827" pageHeight="1169" math="0" shadow="0">
      <root>
        <mxCell id="0" />
        <mxCell id="1" parent="0" />
        <mxCell id="jwE1hZ7euGt-TxEzOdsP-39" value="" style="edgeStyle=orthogonalEdgeStyle;rounded=0;orthogonalLoop=1;jettySize=auto;html=1;" edge="1" parent="1" source="jwE1hZ7euGt-TxEzOdsP-1" target="jwE1hZ7euGt-TxEzOdsP-38">
          <mxGeometry relative="1" as="geometry" />
        </mxCell>
        <mxCell id="jwE1hZ7euGt-TxEzOdsP-1" value="Start" style="ellipse;whiteSpace=wrap;html=1;fontSize=17;" vertex="1" parent="1">
          <mxGeometry x="40" y="40" width="120" height="80" as="geometry" />
        </mxCell>
        <mxCell id="jwE1hZ7euGt-TxEzOdsP-16" value="" style="edgeStyle=orthogonalEdgeStyle;rounded=0;orthogonalLoop=1;jettySize=auto;html=1;" edge="1" parent="1" source="jwE1hZ7euGt-TxEzOdsP-2" target="jwE1hZ7euGt-TxEzOdsP-15">
          <mxGeometry relative="1" as="geometry" />
        </mxCell>
        <mxCell id="jwE1hZ7euGt-TxEzOdsP-2" value="scan barcode" style="whiteSpace=wrap;html=1;fontSize=17;" vertex="1" parent="1">
          <mxGeometry x="370" y="50" width="120" height="60" as="geometry" />
        </mxCell>
        <mxCell id="jwE1hZ7euGt-TxEzOdsP-24" value="" style="edgeStyle=orthogonalEdgeStyle;rounded=0;orthogonalLoop=1;jettySize=auto;html=1;" edge="1" parent="1" source="jwE1hZ7euGt-TxEzOdsP-4" target="jwE1hZ7euGt-TxEzOdsP-23">
          <mxGeometry relative="1" as="geometry" />
        </mxCell>
        <mxCell id="jwE1hZ7euGt-TxEzOdsP-4" value="input nama, harga, deskripsi, stok" style="shape=parallelogram;perimeter=parallelogramPerimeter;whiteSpace=wrap;html=1;fixedSize=1;fontSize=17;" vertex="1" parent="1">
          <mxGeometry x="490" y="160" width="140" height="60" as="geometry" />
        </mxCell>
        <mxCell id="jwE1hZ7euGt-TxEzOdsP-18" value="" style="edgeStyle=orthogonalEdgeStyle;rounded=0;orthogonalLoop=1;jettySize=auto;html=1;" edge="1" parent="1" source="jwE1hZ7euGt-TxEzOdsP-15" target="jwE1hZ7euGt-TxEzOdsP-17">
          <mxGeometry relative="1" as="geometry" />
        </mxCell>
        <mxCell id="jwE1hZ7euGt-TxEzOdsP-19" value="" style="edgeStyle=orthogonalEdgeStyle;rounded=0;orthogonalLoop=1;jettySize=auto;html=1;" edge="1" parent="1" source="jwE1hZ7euGt-TxEzOdsP-15" target="jwE1hZ7euGt-TxEzOdsP-4">
          <mxGeometry relative="1" as="geometry" />
        </mxCell>
        <mxCell id="jwE1hZ7euGt-TxEzOdsP-15" value="apakah ada?" style="rhombus;whiteSpace=wrap;html=1;fontSize=17;" vertex="1" parent="1">
          <mxGeometry x="520" y="40" width="80" height="80" as="geometry" />
        </mxCell>
        <mxCell id="jwE1hZ7euGt-TxEzOdsP-20" style="edgeStyle=orthogonalEdgeStyle;rounded=0;orthogonalLoop=1;jettySize=auto;html=1;entryX=1;entryY=0.75;entryDx=0;entryDy=0;" edge="1" parent="1" source="jwE1hZ7euGt-TxEzOdsP-17" target="jwE1hZ7euGt-TxEzOdsP-4">
          <mxGeometry relative="1" as="geometry">
            <mxPoint x="710" y="210" as="targetPoint" />
            <Array as="points">
              <mxPoint x="720" y="202" />
            </Array>
          </mxGeometry>
        </mxCell>
        <mxCell id="jwE1hZ7euGt-TxEzOdsP-17" value="lakukan pengeditan" style="whiteSpace=wrap;html=1;fontSize=17;" vertex="1" parent="1">
          <mxGeometry x="660" y="50" width="120" height="60" as="geometry" />
        </mxCell>
        <mxCell id="jwE1hZ7euGt-TxEzOdsP-21" value="Ya" style="text;html=1;align=center;verticalAlign=middle;whiteSpace=wrap;rounded=0;" vertex="1" parent="1">
          <mxGeometry x="600" y="50" width="60" height="30" as="geometry" />
        </mxCell>
        <mxCell id="jwE1hZ7euGt-TxEzOdsP-22" value="Tidak" style="text;html=1;align=center;verticalAlign=middle;whiteSpace=wrap;rounded=0;" vertex="1" parent="1">
          <mxGeometry x="560" y="120" width="60" height="30" as="geometry" />
        </mxCell>
        <mxCell id="jwE1hZ7euGt-TxEzOdsP-26" value="" style="edgeStyle=orthogonalEdgeStyle;rounded=0;orthogonalLoop=1;jettySize=auto;html=1;" edge="1" parent="1" source="jwE1hZ7euGt-TxEzOdsP-23" target="jwE1hZ7euGt-TxEzOdsP-25">
          <mxGeometry relative="1" as="geometry" />
        </mxCell>
        <mxCell id="jwE1hZ7euGt-TxEzOdsP-23" value="penambahanBarang atau perubahanbarang" style="strokeWidth=2;html=1;shape=mxgraph.flowchart.database;whiteSpace=wrap;" vertex="1" parent="1">
          <mxGeometry x="360" y="160" width="110" height="60" as="geometry" />
        </mxCell>
        <mxCell id="jwE1hZ7euGt-TxEzOdsP-25" value="End" style="ellipse;whiteSpace=wrap;html=1;fontSize=17;" vertex="1" parent="1">
          <mxGeometry x="40" y="150" width="120" height="80" as="geometry" />
        </mxCell>
        <mxCell id="jwE1hZ7euGt-TxEzOdsP-40" value="" style="edgeStyle=orthogonalEdgeStyle;rounded=0;orthogonalLoop=1;jettySize=auto;html=1;" edge="1" parent="1" source="jwE1hZ7euGt-TxEzOdsP-38" target="jwE1hZ7euGt-TxEzOdsP-2">
          <mxGeometry relative="1" as="geometry" />
        </mxCell>
        <mxCell id="jwE1hZ7euGt-TxEzOdsP-38" value="menampilkan data barang" style="shape=parallelogram;perimeter=parallelogramPerimeter;whiteSpace=wrap;html=1;fixedSize=1;fontSize=17;" vertex="1" parent="1">
          <mxGeometry x="190" y="50" width="140" height="60" as="geometry" />
        </mxCell>
      </root>
    </mxGraphModel>
  </diagram>
</mxfile>
